<svg width="27" height="18" viewBox="0 0 27 18" fill="none" xmlns="http://www.w3.org/2000/svg">
<g clip-path="url(#clip0_1471_1493)">
<path d="M26.1295 4.39258L19.3885 18.0001H16.7749L18.8839 14.0332L14.2031 4.39258H16.8749L20.1442 11.5568L23.4391 4.39258H26.1295Z" fill="black"/>
<path d="M15.7538 14.0195H14.4121C14.1912 14.0102 13.8657 13.98 13.6424 13.8893C13.6261 13.8823 13.6075 13.8753 13.5913 13.8683C13.5401 13.8474 13.4378 13.7939 13.4308 13.7916C13.4006 13.7753 13.3704 13.7567 13.3401 13.7381C13.2425 13.68 13.1611 13.6149 13.0867 13.5451C13.0658 13.5265 13.0425 13.5033 13.0216 13.4823C12.9751 13.4358 12.9332 13.387 12.8937 13.3359C12.7635 13.1731 12.6263 12.8987 12.51 12.6615C12.51 12.6615 12.4333 12.5057 12.403 12.4406L11.5799 10.6734L11.3823 10.2502H8.18964C8.05012 10.2386 7.92688 10.227 7.82225 10.2153C5.94807 9.96652 5.7853 8.45277 5.7853 8.45277H10.5498L9.54993 6.30421H9.54528L7.87805 2.72095L5.91784 6.93668L5.09237 8.72017L4.19016 10.6711L3.84834 11.378L3.36468 12.415C3.36468 12.415 3.25307 12.6545 3.25074 12.6569C3.13448 12.8964 2.99729 13.1684 2.86707 13.3312C2.82754 13.3824 2.78569 13.4312 2.73918 13.4777C2.71825 13.4986 2.69733 13.5219 2.67407 13.5405C2.59501 13.6126 2.5113 13.6753 2.42062 13.7335C2.39039 13.7521 2.31831 13.7939 2.31133 13.7963C2.26947 13.8195 2.13693 13.8776 2.11833 13.8846C1.8951 13.9753 1.56956 14.0055 1.34866 14.0148H0L2.75778 8.07375L6.49451 0.046875H9.25694L13.1564 8.42486L14.2191 10.7246L15.7538 14.0218V14.0195Z" fill="black"/>
</g>
<defs>
<clipPath id="clip0_1471_1493">
<rect width="26.1127" height="18" fill="white"/>
</clipPath>
</defs>
</svg>
