<svg xmlns="http://www.w3.org/2000/svg" version="1.1" xmlns:xlink="http://www.w3.org/1999/xlink" width="208" height="208"><svg width="208" height="208" viewBox="0 0 208 208" fill="none" xmlns="http://www.w3.org/2000/svg">
<rect width="208" height="208" rx="40" fill="black"></rect>
<path d="M88.7009 113.772L83.9396 103.482L66.4766 66H54.0944L25 128.566H31.3347C34.6241 128.566 37.6154 126.66 39.0045 123.678L43.7092 113.58H43.7731L47.8313 104.808H47.7994L51.522 96.8359L60.2935 77.9669L67.7548 94.0239H67.7708L72.1805 103.482L72.7876 104.808L76.8618 113.58L76.9417 113.772L81.5653 123.682C82.9553 126.662 85.9454 128.566 89.2332 128.566H95.603L88.7009 113.772Z" fill="white"></path>
<path d="M87.9211 114.244H61.8623C61.2392 114.196 60.68 114.148 60.2167 114.084C51.8287 112.982 51.0938 104.781 51.0938 104.781H83.1761L87.9051 114.244H87.9211Z" fill="white"></path>
<path d="M140.623 84.9609L110.442 145.914H98.7305L108.189 128.147L87.2109 84.9609H99.1778L113.813 117.043L128.576 84.9609H140.623Z" fill="white"></path>
<mask id="SvgjsMask1005" style="mask-type:alpha" maskUnits="userSpaceOnUse" x="124" y="59" width="59" height="90">
<path d="M153 59.669L124 118.5L183 148.169V59L153 59.669Z" fill="#D9D9D9"></path>
</mask>
<g mask="url(#mask0_1013_537)">
<path d="M168.984 88.6021C168.41 85.0205 166.811 82.3343 164.189 80.5434C161.648 78.678 158.41 77.7453 154.475 77.7453C152.672 77.7453 150.746 78.0437 148.697 78.6407C146.648 79.163 144.762 80.2077 143.041 81.7746C141.32 83.267 139.885 85.3936 138.738 88.1544C137.59 90.8407 137.016 94.385 137.016 98.7875C137.016 101.175 137.303 103.563 137.877 105.951C138.533 108.339 139.516 110.465 140.828 112.331C142.221 114.196 143.984 115.726 146.115 116.92C148.246 118.039 150.828 118.598 153.861 118.598C157.959 118.598 161.32 117.442 163.943 115.129C166.648 112.816 168.328 109.57 168.984 105.391H183C181.689 112.928 178.533 118.71 173.533 122.74C168.615 126.695 162.057 128.672 153.861 128.672C148.861 128.672 144.434 127.926 140.582 126.433C136.811 124.866 133.615 122.777 130.992 120.165C128.369 117.479 126.361 114.308 124.967 110.652C123.656 106.995 123 103.041 123 98.7875C123 94.4596 123.656 90.393 124.967 86.5875C126.279 82.782 128.246 79.4988 130.869 76.7379C133.492 73.9025 136.73 71.7012 140.582 70.1343C144.516 68.4927 149.107 67.6719 154.352 67.6719C158.041 67.6719 161.525 68.1196 164.803 69.015C168.164 69.8358 171.115 71.1043 173.656 72.8205C176.279 74.5367 178.41 76.7006 180.049 79.3122C181.689 81.9239 182.672 85.0205 183 88.6021H168.984Z" fill="#ADA8D2"></path>
</g>
</svg><style>@media (prefers-color-scheme: light) { :root { filter: none; } }
@media (prefers-color-scheme: dark) { :root { filter: none; } }
</style></svg>