<svg width="307" height="67" viewBox="0 0 307 67" fill="none" xmlns="http://www.w3.org/2000/svg">
<path d="M225.448 38.2904C225.076 40.8934 224.183 43.1432 222.77 45.0397C221.357 46.9362 219.554 48.4051 217.36 49.4463C215.203 50.4503 212.786 50.9523 210.108 50.9523C207.617 50.9523 205.311 50.5247 203.192 49.6694C201.072 48.7769 199.213 47.5126 197.614 45.8764C196.052 44.2402 194.825 42.2693 193.932 39.9638C193.04 37.6582 192.594 35.0924 192.594 32.2662C192.594 29.4029 193.04 26.837 193.932 24.5687C194.825 22.2631 196.052 20.2923 197.614 18.6561C199.213 17.0199 201.072 15.7741 203.192 14.9188C205.311 14.0264 207.617 13.5801 210.108 13.5801C212.823 13.5801 215.259 14.1007 217.415 15.142C219.609 16.146 221.413 17.6148 222.826 19.5485C224.239 21.445 225.132 23.7134 225.503 26.3536H221.376C220.855 24.4943 220.037 22.9325 218.922 21.6681C217.843 20.4038 216.542 19.437 215.017 18.7676C213.492 18.0983 211.856 17.7636 210.108 17.7636C207.84 17.7636 205.702 18.3214 203.694 19.437C201.723 20.5526 200.124 22.1888 198.897 24.3456C197.67 26.5024 197.056 29.1426 197.056 32.2662C197.056 35.3899 197.67 38.0301 198.897 40.1869C200.124 42.3437 201.723 43.9799 203.694 45.0955C205.702 46.2111 207.84 46.7689 210.108 46.7689C211.856 46.7689 213.474 46.4528 214.961 45.8206C216.486 45.1513 217.787 44.1844 218.866 42.9201C219.981 41.6558 220.799 40.1125 221.32 38.2904H225.448ZM244.046 50.9523C241.666 50.9523 239.435 50.3759 237.353 49.2232C235.27 48.0704 233.578 46.4156 232.277 44.2588C231.012 42.0648 230.38 39.4804 230.38 36.5055C230.38 33.5306 231.012 30.9647 232.277 28.8079C233.578 26.6139 235.27 24.9219 237.353 23.732C239.435 22.542 241.666 21.947 244.046 21.947C246.426 21.947 248.639 22.542 250.684 23.732C252.766 24.9219 254.44 26.6139 255.704 28.8079C256.968 30.9647 257.601 33.5306 257.601 36.5055C257.601 39.4804 256.968 42.0648 255.704 44.2588C254.44 46.4156 252.766 48.0704 250.684 49.2232C248.639 50.3759 246.426 50.9523 244.046 50.9523ZM244.046 46.7689C245.608 46.7689 247.077 46.3784 248.453 45.5975C249.829 44.8166 250.944 43.6638 251.8 42.1392C252.692 40.5774 253.138 38.6995 253.138 36.5055C253.138 34.3115 252.692 32.4522 251.8 30.9275C250.944 29.3657 249.829 28.1757 248.453 27.3576C247.077 26.5395 245.608 26.1305 244.046 26.1305C242.484 26.1305 240.997 26.5395 239.584 27.3576C238.208 28.1386 237.074 29.3099 236.181 30.8717C235.289 32.3964 234.843 34.2743 234.843 36.5055C234.843 38.6995 235.27 40.5774 236.126 42.1392C237.018 43.6638 238.171 44.8166 239.584 45.5975C240.997 46.3784 242.484 46.7689 244.046 46.7689ZM263.264 22.5048H267.726V50.3945H263.264V22.5048ZM276.651 26.6883C274.754 26.6883 273.155 27.1717 271.854 28.1386C270.589 29.0682 269.585 30.221 268.841 31.5969C268.135 32.9356 267.67 34.2371 267.447 35.5014L267.391 32.2662C267.391 31.9316 267.466 31.3738 267.614 30.5929C267.763 29.8119 268.042 28.9381 268.451 27.9712C268.86 26.9672 269.399 26.0189 270.069 25.1265C270.775 24.1968 271.668 23.4345 272.746 22.8395C273.824 22.2445 275.126 21.947 276.651 21.947V26.6883ZM301.421 41.4141H305.604C305.307 43.2362 304.638 44.8724 303.596 46.3226C302.592 47.7357 301.254 48.8699 299.58 49.7252C297.944 50.5433 296.048 50.9523 293.891 50.9523C291.288 50.9523 288.945 50.3388 286.863 49.1116C284.78 47.8473 283.125 46.1367 281.898 43.9799C280.708 41.7859 280.113 39.2944 280.113 36.5055C280.113 33.7165 280.69 31.225 281.842 29.031C283.032 26.837 284.65 25.1079 286.695 23.8435C288.74 22.5792 291.046 21.947 293.612 21.947C296.326 21.947 298.613 22.5606 300.473 23.7878C302.369 24.9777 303.764 26.7441 304.656 29.0868C305.586 31.3924 305.958 34.2371 305.772 37.6211H284.576C284.762 39.4432 285.264 41.0422 286.082 42.4181C286.9 43.794 287.978 44.8724 289.317 45.6533C290.656 46.397 292.18 46.7689 293.891 46.7689C295.787 46.7689 297.386 46.2854 298.688 45.3186C300.026 44.3146 300.938 43.0131 301.421 41.4141ZM293.779 26.1305C291.474 26.1305 289.54 26.7999 287.978 28.1386C286.416 29.4773 285.375 31.2994 284.855 33.6049H301.198C301.049 31.1506 300.25 29.2913 298.799 28.027C297.386 26.7627 295.713 26.1305 293.779 26.1305Z" fill="white"/>
<path d="M38.3979 42.6515L35.5279 36.4493L25.0015 13.8555H17.5376L1.8472e-05 51.5696H3.81849C5.80128 51.5696 7.60437 50.4204 8.44171 48.6231L11.2776 42.5359H11.3162L13.7624 37.2486H13.7431L15.9871 32.4429L21.2744 21.0689L25.772 30.7478H25.7816L28.4397 36.4493L28.8056 37.2486L31.2615 42.5359L31.3096 42.6515L34.0967 48.6255C34.9346 50.4215 36.737 51.5696 38.7188 51.5696H42.5584L38.3979 42.6515Z" fill="white"/>
<path d="M37.979 42.8142H22.2712C21.8956 42.7854 21.5585 42.7565 21.2792 42.7179C16.2231 42.0534 15.7801 37.1103 15.7801 37.1103H35.1188L37.9694 42.8142H37.979Z" fill="white"/>
<path d="M70.6177 24.6523L52.1385 62.0261H45.0791L50.8496 51.5148L37.6579 24.6523H44.8713L54.2396 44.8215L63.3561 24.6523H70.6177Z" fill="white"/>
<path d="M151.179 24.6523H144.12V51.6445H151.179V24.6523Z" fill="white"/>
<path d="M162.853 42.4789C163.238 43.6924 164.028 44.6651 165.231 45.3874C166.435 46.1193 168.044 46.4853 170.066 46.4853C173.341 46.4853 174.978 45.5319 174.978 43.625C174.978 42.8641 174.727 42.267 174.217 41.8336C173.707 41.4002 173.003 41.0632 172.098 40.8224C171.193 40.5816 169.854 40.3216 168.072 40.0423C165.674 39.6282 163.69 39.1563 162.14 38.6362C160.589 38.1162 159.318 37.3746 158.326 36.4019C157.334 35.4292 156.833 34.129 156.833 32.5014C156.833 30.0359 157.97 28.1194 160.252 26.7326C162.535 25.3457 165.482 24.6523 169.113 24.6523C172.743 24.6523 175.787 25.4613 177.867 27.0697C179.938 28.678 180.987 30.8257 181.026 33.4934H175.016C174.737 32.2125 174.121 31.2879 173.158 30.739C172.204 30.1804 170.817 29.9107 169.007 29.9107C167.331 29.9107 166.05 30.1611 165.145 30.6619C164.239 31.1627 163.787 31.8658 163.787 32.7711C163.787 33.7727 164.326 34.5046 165.405 34.9573C166.483 35.4099 168.4 35.8625 171.154 36.3056C173.591 36.8256 175.507 37.3072 176.904 37.7406C178.3 38.1739 179.475 38.8963 180.458 39.8979C181.43 40.8995 181.922 42.2863 181.922 44.0583C181.922 46.4468 180.862 48.3248 178.734 49.6731C176.605 51.0214 173.755 51.7052 170.162 51.7052C166.57 51.7052 163.951 51.1562 161.88 50.0679C159.809 48.9797 158.374 47.7084 157.594 46.2734C156.814 44.8384 156.467 43.5768 156.573 42.5078H162.843L162.853 42.4789Z" fill="white"/>
<path d="M104.102 51.6445H97.2934V44.0402C97.2934 44.0402 95.4924 47.9214 91.6883 49.9439C87.8841 51.9663 84.7445 51.8412 81.8649 50.8973C81.47 50.7721 81.0944 50.6277 80.7284 50.4639C78.3496 49.4238 76.385 47.6807 75.1811 45.273C73.8039 42.4897 73.9195 37.9825 73.9195 37.9825V24.6523H80.7284V38.724C80.7284 39.1863 80.7284 39.6197 80.7573 39.8894C80.8344 40.6887 81.2004 43.8091 83.3191 45.1285C85.4379 46.4479 87.5759 46.7176 89.8584 46.3998C92.1409 46.0819 94.5197 44.0498 94.8857 43.6454C95.2517 43.2505 97.0526 41.3243 97.2934 39.167C97.2934 39.1189 97.2934 39.0707 97.2934 39.0226V24.6523H104.102V51.6445Z" fill="white"/>
<path d="M109.215 24.6523H116.024V32.1672C116.024 32.1672 117.825 28.286 121.629 26.2636C125.433 24.2411 128.572 24.3663 131.452 25.3101C131.847 25.4353 132.223 25.5798 132.588 25.7435C134.967 26.7836 136.932 28.5268 138.136 30.9345C139.513 33.7178 139.359 38.2346 139.359 38.2346H139.397L139.359 51.6445H132.588V37.4834C132.588 37.0211 132.588 36.5878 132.56 36.3181C132.483 35.5187 132.117 32.3984 129.998 31.079C127.879 29.7595 125.741 29.4899 123.458 29.8077C121.176 30.1255 118.797 32.1576 118.431 32.5621C118.065 32.957 116.264 34.8831 116.024 37.0404C116.024 37.0886 116.024 37.1367 116.024 37.1849V51.6445H109.215V24.6523Z" fill="white"/>
<path d="M144.12 17.3852C144.12 15.4358 145.7 13.8555 147.649 13.8555C149.599 13.8555 151.179 15.4358 151.179 17.3852C151.179 19.3346 149.599 20.9149 147.649 20.9149C145.7 20.9149 144.12 19.3346 144.12 17.3852Z" fill="white"/>
</svg>
