<svg width="492" height="109" viewBox="0 0 492 109" fill="none" xmlns="http://www.w3.org/2000/svg">
<path d="M61.296 70.0198L56.7146 60.119L39.9108 24.0516H27.996L0 84.2561H6.09557C9.26077 84.2561 12.1391 82.4217 13.4758 79.5526L18.0029 69.8353H18.0644L21.9694 61.395H21.9386L25.5208 53.7234L33.9611 35.5668L41.1407 51.0176H41.1561L45.3994 60.119L45.9835 61.395L49.9039 69.8353L49.9808 70.0198L54.4298 79.5565C55.7674 82.4235 58.6446 84.2561 61.8083 84.2561H67.9376L61.296 70.0198Z" fill="white"/>
<path d="M60.5413 70.4739H35.4663C34.8667 70.4278 34.3286 70.3817 33.8828 70.3202C25.8114 69.2594 25.1042 61.3685 25.1042 61.3685H55.9755L60.5259 70.4739H60.5413Z" fill="white"/>
<path d="M111.253 42.2966L82.2119 100.948H70.9428L80.0442 83.8525L59.8582 42.2966H71.3733L85.4558 73.1676L99.6614 42.2966H111.253Z" fill="white"/>
<path d="M238.752 42.1879H227.914V83.6362H238.752V42.1879Z" fill="white"/>
<path d="M256.559 69.8634C257.174 71.8005 258.435 73.3533 260.357 74.5063C262.279 75.6747 264.846 76.2589 268.075 76.2589C273.302 76.2589 275.915 74.7369 275.915 71.6929C275.915 70.4783 275.516 69.5251 274.701 68.8333C273.886 68.1415 272.764 67.6034 271.318 67.219C269.873 66.8347 267.736 66.4196 264.892 65.9737C261.064 65.3127 257.897 64.5593 255.422 63.7292C252.946 62.899 250.917 61.7151 249.334 60.1624C247.75 58.6096 246.951 56.5341 246.951 53.9359C246.951 50.0002 248.765 46.9408 252.408 44.7269C256.052 42.5131 260.756 41.4061 266.552 41.4061C272.348 41.4061 277.207 42.6975 280.527 45.265C283.833 47.8324 285.509 51.2608 285.57 55.5194H275.977C275.531 53.4747 274.547 51.9988 273.01 51.1225C271.488 50.2308 269.274 49.8003 266.383 49.8003C263.708 49.8003 261.664 50.2 260.218 50.9995C258.773 51.7989 258.051 52.9212 258.051 54.3664C258.051 55.9653 258.912 57.1337 260.634 57.8563C262.355 58.5789 265.415 59.3014 269.812 60.0086C273.701 60.8388 276.761 61.6075 278.99 62.2994C281.219 62.9912 283.095 64.1442 284.663 65.7431C286.216 67.342 287 69.5559 287 72.3847C287 76.1974 285.309 79.1954 281.911 81.3477C278.513 83.5001 273.963 84.5916 268.228 84.5916C262.494 84.5916 258.312 83.7153 255.007 81.978C251.701 80.2408 249.411 78.2114 248.165 75.9207C246.92 73.63 246.366 71.616 246.536 69.9095H256.544L256.559 69.8634Z" fill="white"/>
<path d="M164.014 42.2956V83.5901H153.145V72.5516C153.145 72.5516 150.27 78.7473 144.197 81.9758C138.124 85.2043 133.112 85.0045 128.515 83.4979C127.885 83.298 127.286 83.0674 126.701 82.806C122.904 81.1456 119.768 78.3629 117.846 74.5194C115.647 70.0764 115.832 62.8813 115.832 62.8813V42.2802H126.701V64.0651C126.701 64.8031 126.701 65.4949 126.747 65.9254C126.87 67.2014 127.455 72.1826 130.837 74.2888C134.219 76.3951 137.632 76.8255 141.276 76.3182C144.919 75.8108 148.717 72.5669 149.301 71.9212C149.885 71.2909 152.76 68.2161 153.145 64.7723C153.145 64.6955 153.145 64.6186 153.145 64.5417V42.2648H164.014V42.2956Z" fill="white"/>
<path d="M171.87 83.6532V42.3586H182.739V53.3972C182.739 53.3972 185.614 47.2014 191.687 43.9729C197.759 40.7444 202.771 40.9442 207.368 42.4509C207.998 42.6507 208.598 42.8814 209.182 43.1427C212.98 44.8031 216.116 47.5858 218.038 51.4293C220.236 55.8724 219.99 63.0827 219.99 63.0827H220.052V83.6685H209.182V61.8836C209.182 61.1456 209.182 60.4538 209.136 60.0233C209.013 58.7473 208.429 53.7661 205.047 51.6599C201.664 49.5537 198.251 49.1232 194.608 49.6305C190.964 50.1379 187.167 53.3818 186.583 54.0275C185.998 54.6578 183.123 57.7326 182.739 61.1764C182.739 61.2533 182.739 61.3301 182.739 61.407V83.6839H171.87V83.6532Z" fill="white"/>
<rect x="227.972" y="24.0516" width="10.8558" height="8.82035" fill="white"/>
<path d="M357.948 64.3213C357.343 68.5533 355.892 72.2109 353.595 75.2942C351.298 78.3775 348.365 80.7656 344.798 82.4584C341.292 84.0907 337.362 84.9069 333.009 84.9069C328.959 84.9069 325.21 84.2116 321.764 82.8211C318.318 81.3701 315.296 79.3146 312.696 76.6545C310.157 73.9944 308.162 70.7902 306.711 67.0419C305.26 63.2936 304.534 59.1221 304.534 54.5273C304.534 49.8722 305.26 45.7007 306.711 42.0128C308.162 38.2645 310.157 35.0603 312.696 32.4002C315.296 29.7401 318.318 27.7148 321.764 26.3243C325.21 24.8733 328.959 24.1478 333.009 24.1478C337.423 24.1478 341.383 24.9942 344.889 26.687C348.456 28.3193 351.388 30.7074 353.686 33.8511C355.983 36.9344 357.434 40.6223 358.038 44.9147H351.328C350.481 41.8919 349.151 39.3527 347.338 37.2972C345.584 35.2416 343.468 33.6698 340.99 32.5815C338.511 31.4933 335.851 30.9492 333.009 30.9492C329.322 30.9492 325.845 31.8561 322.581 33.6698C319.376 35.4835 316.777 38.1436 314.782 41.6501C312.787 45.1565 311.789 49.449 311.789 54.5273C311.789 59.6057 312.787 63.8981 314.782 67.4046C316.777 70.9111 319.376 73.5712 322.581 75.3849C325.845 77.1986 329.322 78.1055 333.009 78.1055C335.851 78.1055 338.481 77.5916 340.899 76.5638C343.378 75.4756 345.494 73.9037 347.247 71.8482C349.061 69.7927 350.391 67.2837 351.237 64.3213H357.948ZM388.185 84.9069C384.316 84.9069 380.688 83.9698 377.303 82.0956C373.917 80.2215 371.166 77.5311 369.05 74.0246C366.995 70.4577 365.967 66.2559 365.967 61.4194C365.967 56.5829 366.995 52.4114 369.05 48.9049C371.166 45.3379 373.917 42.5871 377.303 40.6525C380.688 38.7179 384.316 37.7506 388.185 37.7506C392.054 37.7506 395.651 38.7179 398.976 40.6525C402.362 42.5871 405.083 45.3379 407.138 48.9049C409.194 52.4114 410.221 56.5829 410.221 61.4194C410.221 66.2559 409.194 70.4577 407.138 74.0246C405.083 77.5311 402.362 80.2215 398.976 82.0956C395.651 83.9698 392.054 84.9069 388.185 84.9069ZM388.185 78.1055C390.724 78.1055 393.112 77.4707 395.349 76.2011C397.586 74.9315 399.4 73.0573 400.79 70.5786C402.241 68.0394 402.967 64.9864 402.967 61.4194C402.967 57.8525 402.241 54.8296 400.79 52.3509C399.4 49.8117 397.586 47.8771 395.349 46.5471C393.112 45.217 390.724 44.552 388.185 44.552C385.646 44.552 383.227 45.217 380.93 46.5471C378.693 47.8166 376.849 49.721 375.398 52.2602C373.947 54.7389 373.222 57.792 373.222 61.4194C373.222 64.9864 373.917 68.0394 375.308 70.5786C376.759 73.0573 378.633 74.9315 380.93 76.2011C383.227 77.4707 385.646 78.1055 388.185 78.1055ZM419.428 38.6575H426.683V84H419.428V38.6575ZM441.192 45.4588C438.109 45.4588 435.51 46.2448 433.394 47.8166C431.338 49.3281 429.706 51.2022 428.497 53.4391C427.348 55.6156 426.592 57.7315 426.229 59.7871L426.139 54.5273C426.139 53.9832 426.26 53.0764 426.501 51.8068C426.743 50.5372 427.197 49.1165 427.862 47.5446C428.527 45.9123 429.403 44.3706 430.492 42.9197C431.64 41.4082 433.091 40.1689 434.844 39.2016C436.598 38.2343 438.714 37.7506 441.192 37.7506V45.4588ZM481.464 69.3997H488.265C487.781 72.3621 486.693 75.0222 485 77.38C483.368 79.6773 481.192 81.5213 478.471 82.9118C475.811 84.2418 472.728 84.9069 469.221 84.9069C464.989 84.9069 461.18 83.9093 457.795 81.9142C454.409 79.8587 451.719 77.0777 449.724 73.5712C447.789 70.0043 446.822 65.9537 446.822 61.4194C446.822 56.8852 447.759 52.8346 449.633 49.2676C451.568 45.7007 454.198 42.8894 457.523 40.8339C460.848 38.7784 464.596 37.7506 468.768 37.7506C473.181 37.7506 476.899 38.7481 479.922 40.7432C483.005 42.6778 485.272 45.5495 486.723 49.3583C488.235 53.1066 488.839 57.7315 488.537 63.2331H454.077C454.379 66.1955 455.195 68.7951 456.525 71.032C457.855 73.2689 459.609 75.0222 461.785 76.2918C463.961 77.5009 466.44 78.1055 469.221 78.1055C472.305 78.1055 474.904 77.3195 477.02 75.7477C479.197 74.1153 480.678 71.9993 481.464 69.3997ZM469.04 44.552C465.292 44.552 462.148 45.6402 459.609 47.8166C457.069 49.9931 455.377 52.9555 454.53 56.7038H481.101C480.859 52.7136 479.559 49.6908 477.202 47.6353C474.904 45.5797 472.184 44.552 469.04 44.552Z" fill="#8178C3"/>
</svg>
